<?xml version="1.0" encoding="utf-8"?>
<!-- Generator: Adobe Illustrator 25.2.1, SVG Export Plug-In . SVG Version: 6.00 Build 0)  -->
<svg version="1.1" id="Capa_1" xmlns="http://www.w3.org/2000/svg" xmlns:xlink="http://www.w3.org/1999/xlink" x="0px" y="0px"
	 viewBox="0 0 1080 1080" style="enable-background:new 0 0 1080 1080;" xml:space="preserve">
<style type="text/css">
	.st0{fill:#346C88;}
	.st1{fill:#33A2D2;}
	.st2{fill:#90AFC5;}
</style>
<path class="st0" d="M531.32,638.3L566,624.38c-0.21-9.1-0.97-18.07-2.2-26.88l-37.36-7.46c-1.81-7.88-4.11-15.58-6.85-23.07
	l28.55-26.67c-3.42-8.17-7.3-16.1-11.59-23.76l-39.57,6.9c-4.36-6.3-9.08-12.32-14.13-18.05l17.87-37.01
	c-6.04-6.24-12.41-12.15-19.11-17.69l-36.26,21.84c-5.96-4-12.15-7.67-18.55-11l3.46-43.04c-7.76-3.55-15.76-6.69-23.96-9.39
	l-27.21,35.13c-6.49-1.42-13.1-2.52-19.82-3.27l-12.84-43.11c-4.25-0.23-8.52-0.36-12.83-0.36s-8.58,0.13-12.83,0.36l-13.14,44.14
	c-6.22,0.96-12.34,2.21-18.35,3.74L260.9,409.1c-8.2,2.7-16.19,5.83-23.96,9.39l3.77,46.99c-5.1,2.94-10.05,6.11-14.85,9.48
	l-40.28-24.26c-6.7,5.54-13.07,11.45-19.11,17.69l20.6,42.66c-3.57,4.37-6.95,8.89-10.14,13.56l-46.3-8.07
	c-4.29,7.66-8.17,15.59-11.59,23.76l34.24,31.99c-1.77,5.29-3.31,10.69-4.62,16.17l-45.29,9.04c-1.23,8.81-1.98,17.78-2.2,26.88
	l42.32,16.99c0.22,5.77,0.68,11.48,1.4,17.11l-37.82,24.06c2.08,8.99,4.69,17.78,7.78,26.34l43.8,0.54c2.36,5.57,4.98,11,7.83,16.28
	l-25.45,34.57c5.24,7.73,10.94,15.13,17.05,22.16l39.07-14.59c4.44,4.64,9.11,9.06,13.99,13.24l-10.71,39.46
	c7.71,5.4,15.77,10.34,24.13,14.79l29.56-26.29c6.22,2.96,12.63,5.59,19.19,7.89l4.06,38.66c9.14,2.27,18.49,4,28.02,5.15
	l17.22-33.54c4.87,0.37,9.79,0.55,14.75,0.55c2.48,0,4.95-0.06,7.41-0.15l17.01,33.14c9.53-1.15,18.88-2.88,28.02-5.15l3.79-36.12
	c7.54-2.28,14.89-5.01,22.02-8.15l27,24.02c8.36-4.45,16.42-9.39,24.13-14.79l-9.33-34.39c6.38-5.04,12.44-10.47,18.14-16.25
	l33.54,12.52c6.11-7.03,11.81-14.43,17.05-22.16l-21.17-28.76c4.16-7.12,7.89-14.52,11.13-22.18l36.22-0.44
	c3.09-8.56,5.7-17.35,7.78-26.34l-30.9-19.66C530.41,654.84,531.13,646.63,531.32,638.3z M333.6,767.05
	c-76.18,0-137.94-61.76-137.94-137.94s61.76-137.94,137.94-137.94s137.94,61.76,137.94,137.94S409.78,767.05,333.6,767.05z"/>
<path class="st1" d="M956.32,759.3L991,745.38c-0.21-9.1-0.97-18.07-2.2-26.88l-37.36-7.46c-1.81-7.88-4.11-15.58-6.85-23.07
	l28.55-26.67c-3.42-8.17-7.3-16.1-11.59-23.76l-39.57,6.9c-4.36-6.3-9.08-12.32-14.13-18.05l17.87-37.01
	c-6.04-6.24-12.41-12.15-19.11-17.69l-36.26,21.84c-5.96-4-12.15-7.67-18.55-11l3.46-43.04c-7.76-3.55-15.76-6.69-23.96-9.39
	l-27.21,35.13c-6.49-1.42-13.1-2.52-19.82-3.27l-12.84-43.11c-4.25-0.23-8.52-0.36-12.83-0.36s-8.58,0.13-12.83,0.36l-13.14,44.14
	c-6.22,0.96-12.34,2.21-18.35,3.74L685.9,530.1c-8.2,2.7-16.19,5.83-23.96,9.39l3.77,46.99c-5.1,2.94-10.05,6.11-14.85,9.48
	l-40.28-24.26c-6.7,5.54-13.07,11.45-19.11,17.69l20.6,42.66c-3.57,4.37-6.95,8.89-10.14,13.56l-46.3-8.07
	c-4.29,7.66-8.17,15.59-11.59,23.76l34.24,31.99c-1.77,5.29-3.31,10.69-4.62,16.17l-45.29,9.04c-1.23,8.81-1.98,17.78-2.2,26.88
	l42.32,16.99c0.22,5.77,0.68,11.48,1.4,17.11l-37.82,24.06c2.08,8.99,4.69,17.78,7.78,26.34l43.8,0.54c2.36,5.57,4.98,11,7.83,16.28
	l-25.45,34.57c5.24,7.73,10.94,15.13,17.05,22.16l39.07-14.59c4.44,4.64,9.11,9.06,13.99,13.24l-10.71,39.46
	c7.71,5.4,15.77,10.34,24.13,14.79l29.56-26.29c6.22,2.96,12.63,5.59,19.19,7.89l4.06,38.66c9.14,2.27,18.49,4,28.02,5.15
	l17.22-33.54c4.87,0.37,9.79,0.55,14.75,0.55c2.48,0,4.95-0.06,7.41-0.15l17.01,33.14c9.53-1.15,18.88-2.88,28.02-5.15l3.79-36.12
	c7.54-2.28,14.89-5.01,22.02-8.15l27,24.02c8.36-4.45,16.42-9.39,24.13-14.79l-9.33-34.39c6.38-5.04,12.44-10.47,18.14-16.25
	l33.54,12.52c6.11-7.03,11.81-14.43,17.05-22.16l-21.17-28.76c4.16-7.12,7.89-14.52,11.13-22.18l36.22-0.44
	c3.09-8.56,5.7-17.35,7.78-26.34l-30.9-19.66C955.41,775.84,956.13,767.63,956.32,759.3z M758.6,888.05
	c-76.18,0-137.94-61.76-137.94-137.94s61.76-137.94,137.94-137.94s137.94,61.76,137.94,137.94S834.78,888.05,758.6,888.05z"/>
<path class="st2" d="M877.32,320.3L912,306.38c-0.21-9.1-0.97-18.07-2.2-26.88l-37.36-7.46c-1.81-7.88-4.11-15.58-6.85-23.07
	l28.55-26.67c-3.42-8.17-7.3-16.1-11.59-23.76l-39.57,6.9c-4.36-6.3-9.08-12.32-14.13-18.05l17.87-37.01
	c-6.04-6.24-12.41-12.15-19.11-17.69l-36.26,21.84c-5.96-4-12.15-7.67-18.55-11l3.46-43.04c-7.76-3.55-15.76-6.69-23.96-9.39
	l-27.21,35.13c-6.49-1.42-13.1-2.52-19.82-3.27l-12.84-43.11c-4.25-0.23-8.52-0.36-12.83-0.36s-8.58,0.13-12.83,0.36l-13.14,44.14
	c-6.22,0.96-12.34,2.21-18.35,3.74L606.9,91.1c-8.2,2.7-16.19,5.83-23.96,9.39l3.77,46.99c-5.1,2.94-10.05,6.11-14.85,9.48
	l-40.28-24.26c-6.7,5.54-13.07,11.45-19.11,17.69l20.6,42.66c-3.57,4.37-6.95,8.89-10.14,13.56l-46.3-8.07
	c-4.29,7.66-8.17,15.59-11.59,23.76l34.24,31.99c-1.77,5.29-3.31,10.69-4.62,16.17l-45.29,9.04c-1.23,8.81-1.98,17.78-2.2,26.88
	l42.32,16.99c0.22,5.77,0.68,11.48,1.4,17.11l-37.82,24.06c2.08,8.99,4.69,17.78,7.78,26.34l43.8,0.54c2.36,5.57,4.98,11,7.83,16.28
	l-25.45,34.57c5.24,7.73,10.94,15.13,17.05,22.16l39.07-14.59c4.44,4.64,9.11,9.06,13.99,13.24l-10.71,39.46
	c7.71,5.4,15.77,10.34,24.13,14.79l29.56-26.29c6.22,2.96,12.63,5.59,19.19,7.89l4.06,38.66c9.14,2.27,18.49,4,28.02,5.15
	l17.22-33.54c4.87,0.37,9.79,0.55,14.75,0.55c2.48,0,4.95-0.06,7.41-0.15l17.01,33.14c9.53-1.15,18.88-2.88,28.02-5.15l3.79-36.12
	c7.54-2.28,14.89-5.01,22.02-8.15l27,24.02c8.36-4.45,16.42-9.39,24.13-14.79l-9.33-34.39c6.38-5.04,12.44-10.47,18.14-16.25
	l33.54,12.52c6.11-7.03,11.81-14.43,17.05-22.16l-21.17-28.76c4.16-7.12,7.89-14.52,11.13-22.18l36.22-0.44
	c3.09-8.56,5.7-17.35,7.78-26.34l-30.9-19.66C876.41,336.84,877.13,328.63,877.32,320.3z M679.6,449.05
	c-76.18,0-137.94-61.76-137.94-137.94s61.76-137.94,137.94-137.94s137.94,61.76,137.94,137.94S755.78,449.05,679.6,449.05z"/>
</svg>
